/* XPM */
static char * prop_anim_xpm[] = {
"18 108 7 1",
" 	c None",
".	c #A0A0A0",
"+	c #303030",
"@	c #808080",
"#	c #585858",
"$	c #800000",
"%	c #FF0000",
"                  ",
"        .+        ",
"       .@#+       ",
"       .@#+       ",
"       .@#+       ",
"        .+        ",
"        .+        ",
"        $$        ",
"       $%%$       ",
"       $%$$       ",
"        $$        ",
"        +.        ",
"        +.        ",
"       +#@.       ",
"       +#@.       ",
"       +#@.       ",
"        +.        ",
"                  ",
"                  ",
"                  ",
"             ..+  ",
"            .@#+  ",
"           .@@#+  ",
"           .@#+   ",
"          .@++    ",
"        $$#+      ",
"       $%%$       ",
"       $%$$       ",
"      +#$$        ",
"    ++@.          ",
"   +#@.           ",
"  +#@@.           ",
"  +#@.            ",
"  +..             ",
"                  ",
"                  ",
"                  ",
"                  ",
"                  ",
"                  ",
"                  ",
"                  ",
"                  ",
"  +++   $$   ...  ",
" +###++$%%$..@@@. ",
" .@@@..$%$$++###+ ",
"  ...   $$   +++  ",
"                  ",
"                  ",
"                  ",
"                  ",
"                  ",
"                  ",
"                  ",
"                  ",
"                  ",
"  +++             ",
"  .##+            ",
"  .@@#+           ",
"   .@#+           ",
"    ..#+          ",
"      .#$$        ",
"       $%%$       ",
"       $%$$       ",
"        $$#.      ",
"          +#..    ",
"           +#@.   ",
"           +#@@.  ",
"            +##.  ",
"             +++  ",
"                  ",
"                  ",
"                  ",
"        .+        ",
"       .@#+       ",
"       .@#+       ",
"       .@#+       ",
"        .+        ",
"        .+        ",
"  +++   $$   ...  ",
" +###++$%%$..@@@. ",
" .@@@..$%$$++###+ ",
"  ...   $$   +++  ",
"        +.        ",
"        +.        ",
"       +#@.       ",
"       +#@.       ",
"       +#@.       ",
"        +.        ",
"                  ",
"                  ",
"                  ",
"  +++        ..+  ",
"  .##+      .@#+  ",
"  .@@#+    .@@#+  ",
"   .@@+    .@#+   ",
"    ..#+  .@++    ",
"      .#$$#+      ",
"       $%%$       ",
"       $%$$       ",
"      +#$$#.      ",
"    ++@.  +#..    ",
"   +#@.    +@@.   ",
"  +#@@.    +#@@.  ",
"  +#@.      +##.  ",
"  +..        +++  ",
"                  ",
"                  "};
